<svg xmlns="http://www.w3.org/2000/svg" width="621.5" height="215.9" viewBox="0 0 621.5 215.9"><style>.st0{fill:#D8D8D8;}</style><g id="MESHUGGAH"><path class="st0" d="M34 1C22.5 13.3 1.5 92.1 0 101.1c2.1 2.5 11.3 7.8 17.8 9.3C19.4 101.7 33.5 32.1 54 9c-4.6-3.5-14.1-6.9-20-8z"/><path class="st0" d="M34.2 9.6c-1.3 14-.9 48.5 3.6 66.1 0 0 10.2 5.7 19.7 8.1 0 0-9.2-44.3-3.5-74.8L39.3 5.7c-2.6-.5-4.8 1.3-5.1 3.9zM502.9 11.2c-.5 29.4 8.4 76.7 14.7 92.7 0 0 6.5 4.1 20.9 6.9 0 0-21.5-67.7-15.9-100.3l-14.8-3.2c-2.4-.5-4.8 1.4-4.9 3.9z"/><path class="st0" d="M75.8 24.3S48.4 63.2 43 77.6c0 0 7.7 4.8 14.5 6.2 0 0 14.5-29 36.2-52.3.1 0-9.4-6-17.9-7.2z"/><path class="st0" d="M62.9 103.1c.4-12.1 10.3-73.9 12.9-78.3 0 0 9.5 1.6 18 6.6 0 0-11.9 62.6-13.5 77.9-6.9-.7-14.3-3.8-17.4-6.2zM101 16.4c-5.7 24.9-11.1 66.5-13 84.8 4.1 4.8 9.5 7.8 14.8 9.5 4.9-30.4 11.1-63.6 18.2-91.3-5.6-3.2-14.1-4.1-20-3z"/><path class="st0" d="M141.3 1c-14.4 2.5-38 13.1-40.2 15.4.8 3.5 5.8 17.3 8.4 17.7 8.3-4.5 24.4-11.6 39.4-14.1-1-6.1-4.2-14.6-7.6-19zM127 40.9c-6.4 1.5-22.3 13-27.5 18.1.5 6.5 2.5 10.5 5.3 15.2 6-4.7 16.6-10.8 26.1-15.2-.8-6.6-1.6-11.5-3.9-18.1zM135.6 63.5c-17.7 10.5-31.1 20.7-47.1 37.1 5.9 5.3 8 6.7 14.2 10.2 8.6-9.7 33.2-27.2 41.5-31-1-4.7-5.5-13-8.6-16.3zM200.7 7.1c-31.8 1-53 15.2-55.4 19.6-.3 12.8 1.7 23.8 5 31.5 2.3 3.2 25.8 8.4 51.8 7.4 25-1 54.1-9.7 60.3-12 .5-4.4-.9-13.8-2.4-18-7.9 2.6-28.2 9.2-55.6 11.4-24 1.9-47.8-3.4-47.9-6.4-.1-4.6 27.6-16.1 46.8-14.4 1.8-5.1.2-14.8-2.6-19.1z"/><path class="st0" d="M125.5 98c2.4 3.7 10.3 10.7 14.2 12.6 23.3-16.3 53.8-35.6 122.8-57 .2-3.4-.4-12.1-2.4-18-11.3 3.8-86.9 22.1-134.6 62.4z"/><path class="st0" d="M265.9 1c-8.3 21.2-27.3 82.3-30.8 101 3 3.2 11.8 7.8 16.5 8.8 5.5-22.8 23.5-79.8 31.9-100-3-3.7-12-8.3-17.6-9.8zM220.9.8c-8.3 21.2-27.3 82.3-30.8 101 3 3.2 11.8 7.8 16.5 8.8 5.5-22.8 23.5-79.8 31.9-100-3-3.7-12-8.3-17.6-9.8zM476.2 98.1c2.4 3.7 10.3 10.7 14.2 12.6 23.3-16.2 53.4-35.6 122.4-57 .2-3.4-.1-12-2.1-17.9-11.2 3.7-86.8 22.1-134.5 62.3z"/><path class="st0" d="M602.5 0c-4.9 22.2-14.3 85.5-14.8 104.5 3.4 2.7 12.8 5.8 17.7 6.2 2-23.4 11-82.4 16.1-103.7-3.6-3.2-13.2-6.4-19-7zM558 .3c-4.9 22.2-14.3 85.5-14.8 104.5 3.4 2.7 12.8 5.8 17.7 6.2 2-23.4 11-82.4 16.1-103.7-3.6-3.2-13.2-6.4-19-7zM505.1.8c-8.3 21.2-27.3 82.3-30.8 101 3 3.2 11.8 7.8 16.5 8.8 5.5-22.8 23.5-79.8 31.9-100-3-3.7-12-8.3-17.6-9.8zM291 15.9c-8.4 20.6-23.4 68.6-26.4 84.1 2.7 4.1 11.8 9.7 17.6 10.8 3.3-14.4 18-67.2 23.9-83.1-2.2-3.1-9.8-9.7-15.1-11.8zM336.6 3.4c-8.4 20.6-22.7 65-25.6 80.5 2.7 4.1 12.2 8.4 18 9.6 3.3-14.4 16.8-62.3 22.7-78.3-2.3-3.1-9.8-9.8-15.1-11.8z"/><path class="st0" d="M267.6 98c14.2-10 39.2-19.2 61.1-23.7 1.9 1.8.6 15.6.3 19.1-22.4 6.3-38.2 13.1-46.8 17.4-4.9-2.9-11.5-8.9-14.6-12.8zM381.1 1c-9 7.5-41.3 73-46.8 98.1.8 2.5 11.7 11.7 15.7 11.5 23.7-4.3 60.6-20.3 60.6-25.2 0-9.2-2.1-20.8-4.5-25.5-2.7-5.1-22.5-6.8-28.2-5.7-1.8 6.8-1.2 15-.8 19.3 8.5-1.2 16.3-.6 16.8 1.4 1 4.1-37.1 17.6-38 16.8-2.4-2.1 29.8-71 35-70.3 1.6.2.9 8.9-1.8 16 2.8 2.8 13.9 6.8 17.9 6.7 4.7-14 4.3-26.9 1.1-32.9-6.9-4-18.3-8.7-27-10.2z"/><path class="st0" d="M451.8 1c-9 7.5-41.3 73-46.8 98.1.8 2.5 11.7 11.7 15.7 11.5 23.7-4.3 60.6-20.3 60.6-25.2 0-9.2-2.1-20.8-4.5-25.5-2.7-5.1-22.5-6.8-28.2-5.7-1.8 6.8-1.2 15-.8 19.3 8.5-1.2 16.3-.6 16.8 1.4 1 4.1-37.1 17.6-38 16.8-2.4-2.1 29.8-71 35-70.3 1.6.2.9 8.9-1.8 16 2.8 2.8 13.9 6.8 17.9 6.7 4.7-14 4.3-26.9 1.1-32.9-6.9-4-18.3-8.7-27-10.2z"/></g><g id="DANCE"><path class="st0" d="M285.1 173.1h6.9V216h-6.9zM466 173.1h47.8v6.9H466zM466 209h47.8v6.9H466zM466 191.3h24v6.9h-24z"/><path class="st0" d="M466 173.2h6.9v24H466zM202 215.9h-7l24-42.6v11.3zM224.6 194.7h6.6L219 173.3v11.3zM331 211l-5 4.9-38.7-37.8 4.7-5z"/><path class="st0" d="M333 215.9h-7v-17.4l7 7.1zM104.8 176.8h6.9v17.5l-6.9-7.2zM423.2 208.5v6.9h-23.6l7.1-6.9zM382.8 194.1c0-8 6.9-14.5 15.3-14.5h25.1v-6.9h-25.1c-12.5 0-22.6 9.6-22.6 21.4h7.3z"/><path class="st0" d="M104.8 180h25.1s15.3 6.5 15.3 14.5-6.9 14.5-15.3 14.5h-25.1v6.9h25.1s22.6-9.6 22.6-21.4-10.1-21.4-22.6-21.4h-25.1v6.9z"/></g></svg>