<?xml version="1.0" encoding="utf-8"?>
<!-- Generator: Adobe Illustrator 19.1.0, SVG Export Plug-In . SVG Version: 6.00 Build 0)  -->
<svg version="1.1" id="Layer_1" xmlns="http://www.w3.org/2000/svg" xmlns:xlink="http://www.w3.org/1999/xlink" x="0px" y="0px"
	 viewBox="-470 1252.2 338.6 496.8" style="enable-background:new -470 1252.2 338.6 496.8;" xml:space="preserve">
<style type="text/css">
	.st0{fill:#FFFFFF;}
	.st1{display:none;fill:none;stroke:#FFFFFF;stroke-miterlimit:10;}
</style>
<path id="XMLID_103_" class="st0" d="M-243.2,1680.7c-4.2,16.9-9.2,33.6-14.1,50.4c-1.4,4.7-2.8,9.5-6,13.2c-3.2,3.7-8.6,6-13.1,4
	c-3.3-1.4-5.4-4.9-6.1-8.4s-0.3-7.1,0.2-10.7c3.3-22.4,10.5-44,16.2-65.8c0.3-1.3,0.4-2.7,0.4-2.7c-7.1-7.8-15.3-17.1-22.5-24.8
	c-1.7-1.9-3.5-3.7-5.2-5.6c-1.5-1.6-5.4-5.7-7.9-8.2c0,0-4.6,6.4-6.4,8.6c-10.1,12.4-22.3,23.1-36.2,30.9
	c-14.7,8.3-31.4,13.1-48.3,13.1c-8.1,0-16.2-1.1-24-3.4c-19.6-5.8-37-19.5-45.9-37.8c-6-12.5-8-26.7-7.9-40.6
	c0.1-13.9,2.2-28.1,8-40.7c7.5-16.2,21-29.2,36.5-38c9.6-5.5,21-8.1,31.9-9.8c16.6-2.6,32.1-1.1,48.3,5.6c8.4,3.4,16,8.5,23,14.2
	c3.5,2.8,7.1,5.9,10.4,9c5.3,5.1,8.2,8.1,8.8,8.6c0.9-2.1,1.5-3.2,2.4-5.2c6.9-16,14.3-31.7,20.8-47.9
	c11.7-29.3,23.3-58.6,34.1-88.2c8.3-22.8,16-45.9,22.9-69.2c5.1-17.2,9.6-34.7,12.5-52.4c1.4-8.3,7.5-10,12.3-12
	c17.8-7.3,35.7-14.3,55.1-14.7c2.9-0.1,6.4,0.3,8.6,1.9c1.7,1.2,2.9,4.9,2.4,7.1c-2.3,11-5,21.9-7.9,32.8
	c-4.6,16.9-9.8,33.7-14.5,50.7c-5.9,21.1-11.7,42.2-17.2,63.4c-4.9,18.7-9.3,37.6-14.1,56.3c-5.2,20.5-10.5,41-16.1,61.3
	c-5.3,19.2-11.2,38.2-16.6,57.4c-3.8,13.7-7.3,27.5-10.8,41.3c-0.3,1.3-0.7,3-0.7,3c6.3,6.7,11.6,11.7,15.9,15.8
	c6.3,6,13.5,12.6,20.4,18.2c12.4,9.9,13.3,10.4,23,17.6c14,9.1,21.8,8.4,25.5,2c4.9-8.5,2.4-17.5,0.8-21.5
	c-1.4-3.7,5.5,2.2,11.2,19.8c3.5,10.9,0.6,26.1-4.2,34.8c-10.2,18.5-33.7,23.7-52.3,11.5C-211.9,1710.9-223,1699-243.2,1680.7z
	 M-226.4,1466.6c-0.9,2-1.6,3.5-2.4,5.4c-6.6,15.4-12.9,30.9-19.9,46.1c-5,10.7-10.2,21.3-15.4,31.8c-2.6,5.3-5.2,10.6-7.8,15.9
	c-1.7,3.4-4.3,8.5-4.3,8.5c1.3,1.4,6.2,7.4,9.4,11c5.4,6,10.2,11.2,15.2,17.5c0,0,1-5,1.3-6.6c2.2-12.1,3.9-22.3,6.1-34.4
	c2.5-13.1,4.9-26.2,7.4-39.3c3.6-18.7,7.1-37.4,10.7-56.1c0.1-0.5,0.1-0.9,0.2-1.3C-225.9,1465.6-226,1465.7-226.4,1466.6z
	 M-383.5,1557.1c-1.4,0-2.8,0.1-4.3,0.2c-8.9,1-17.4,4.8-24.3,10.5c-7.2,6-12.8,14-15.5,23c-2.9,10.1-1.9,21.4,3.1,30.6
	c5,9.2,14.1,16.3,24.4,18.5c11.9,2.6,24.6-1.3,34.8-8c9.2-6,19.4-14.7,26.7-22.8c3.7-4,8.5-10.6,12-16.5c0,0-2.9-3.7-5.9-7.3
	c-4.2-5.2-10.4-11-14.5-14.2C-357.3,1562.9-370.3,1557-383.5,1557.1z"/>
<line id="XMLID_40_" class="st1" x1="-379.9" y1="1390.1" x2="-418.5" y2="1569.7"/>
<line id="XMLID_42_" class="st1" x1="-343" y1="1354" x2="-403.2" y2="1579.4"/>
</svg>
