<?xml version="1.0" encoding="utf-8"?>
<!-- Generator: Adobe Illustrator 19.1.0, SVG Export Plug-In . SVG Version: 6.00 Build 0)  -->
<svg version="1.1" xmlns="http://www.w3.org/2000/svg" xmlns:xlink="http://www.w3.org/1999/xlink" x="0px" y="0px" width="621.5px"
	 height="215.9px" viewBox="0 0 621.5 215.9" style="enable-background:new 0 0 621.5 215.9;" xml:space="preserve">
<style type="text/css">
	.st0{fill:#D8D8D8;}
</style>
<g id="MESHUGGAH">
	<path class="st0" d="M34,1C22.5,13.3,1.5,92.1,0,101.1c2.1,2.5,11.3,7.8,17.8,9.3C19.4,101.7,33.5,32.1,54,9
		C49.4,5.5,39.9,2.1,34,1z"/>
	<path class="st0" d="M34.2,9.6c-1.3,14-0.9,48.5,3.6,66.1c0,0,10.2,5.7,19.7,8.1c0,0-9.2-44.3-3.5-74.8L39.3,5.7
		C36.7,5.2,34.5,7,34.2,9.6z"/>
	<path class="st0" d="M502.9,11.2c-0.5,29.4,8.4,76.7,14.7,92.7c0,0,6.5,4.1,20.9,6.9c0,0-21.5-67.7-15.9-100.3l-14.8-3.2
		C505.4,6.8,503,8.7,502.9,11.2z"/>
	<path class="st0" d="M75.8,24.3c0,0-27.4,38.9-32.8,53.3c0,0,7.7,4.8,14.5,6.2c0,0,14.5-29,36.2-52.3
		C93.8,31.5,84.3,25.5,75.8,24.3z"/>
	<path class="st0" d="M62.9,103.1C63.3,91,73.2,29.2,75.8,24.8c0,0,9.5,1.6,18,6.6c0,0-11.9,62.6-13.5,77.9
		C73.4,108.6,66,105.5,62.9,103.1z"/>
	<path class="st0" d="M101,16.4C95.3,41.3,89.9,82.9,88,101.2c4.1,4.8,9.5,7.8,14.8,9.5c4.9-30.4,11.1-63.6,18.2-91.3
		C115.4,16.2,106.9,15.3,101,16.4z"/>
	<path class="st0" d="M141.3,1c-14.4,2.5-38,13.1-40.2,15.4c0.8,3.5,5.8,17.3,8.4,17.7c8.3-4.5,24.4-11.6,39.4-14.1
		C147.9,13.9,144.7,5.4,141.3,1z"/>
	<path class="st0" d="M127,40.9c-6.4,1.5-22.3,13-27.5,18.1c0.5,6.5,2.5,10.5,5.3,15.2c6-4.7,16.6-10.8,26.1-15.2
		C130.1,52.4,129.3,47.5,127,40.9z"/>
	<path class="st0" d="M135.6,63.5c-17.7,10.5-31.1,20.7-47.1,37.1c5.9,5.3,8,6.7,14.2,10.2c8.6-9.7,33.2-27.2,41.5-31
		C143.2,75.1,138.7,66.8,135.6,63.5z"/>
	<path class="st0" d="M200.7,7.1c-31.8,1-53,15.2-55.4,19.6c-0.3,12.8,1.7,23.8,5,31.5c2.3,3.2,25.8,8.4,51.8,7.4
		c25-1,54.1-9.7,60.3-12c0.5-4.4-0.9-13.8-2.4-18c-7.9,2.6-28.2,9.2-55.6,11.4c-24,1.9-47.8-3.4-47.9-6.4
		c-0.1-4.6,27.6-16.1,46.8-14.4C205.1,21.1,203.5,11.4,200.7,7.1z"/>
	<path class="st0" d="M125.5,98c2.4,3.7,10.3,10.7,14.2,12.6C163,94.3,193.5,75,262.5,53.6c0.2-3.4-0.4-12.1-2.4-18
		C248.8,39.4,173.2,57.7,125.5,98z"/>
	<path class="st0" d="M265.9,1c-8.3,21.2-27.3,82.3-30.8,101c3,3.2,11.8,7.8,16.5,8.8c5.5-22.8,23.5-79.8,31.9-100
		C280.5,7.1,271.5,2.5,265.9,1z"/>
	<path class="st0" d="M220.9,0.8c-8.3,21.2-27.3,82.3-30.8,101c3,3.2,11.8,7.8,16.5,8.8c5.5-22.8,23.5-79.8,31.9-100
		C235.5,6.9,226.5,2.3,220.9,0.8z"/>
	<path class="st0" d="M476.2,98.1c2.4,3.7,10.3,10.7,14.2,12.6c23.3-16.2,53.4-35.6,122.4-57c0.2-3.4-0.1-12-2.1-17.9
		C599.5,39.5,523.9,57.9,476.2,98.1z"/>
	<path class="st0" d="M602.5,0c-4.9,22.2-14.3,85.5-14.8,104.5c3.4,2.7,12.8,5.8,17.7,6.2c2-23.4,11-82.4,16.1-103.7
		C617.9,3.8,608.3,0.6,602.5,0z"/>
	<path class="st0" d="M558,0.3c-4.9,22.2-14.3,85.5-14.8,104.5c3.4,2.7,12.8,5.8,17.7,6.2c2-23.4,11-82.4,16.1-103.7
		C573.4,4.1,563.8,0.9,558,0.3z"/>
	<path class="st0" d="M505.1,0.8c-8.3,21.2-27.3,82.3-30.8,101c3,3.2,11.8,7.8,16.5,8.8c5.5-22.8,23.5-79.8,31.9-100
		C519.7,6.9,510.7,2.3,505.1,0.8z"/>
	<path class="st0" d="M291,15.9c-8.4,20.6-23.4,68.6-26.4,84.1c2.7,4.1,11.8,9.7,17.6,10.8c3.3-14.4,18-67.2,23.9-83.1
		C303.9,24.6,296.3,18,291,15.9z"/>
	<path class="st0" d="M336.6,3.4c-8.4,20.6-22.7,65-25.6,80.5c2.7,4.1,12.2,8.4,18,9.6c3.3-14.4,16.8-62.3,22.7-78.3
		C349.4,12.1,341.9,5.4,336.6,3.4z"/>
	<path class="st0" d="M267.6,98c14.2-10,39.2-19.2,61.1-23.7c1.9,1.8,0.6,15.6,0.3,19.1c-22.4,6.3-38.2,13.1-46.8,17.4
		C277.3,107.9,270.7,101.9,267.6,98z"/>
	<path class="st0" d="M469.2,88.8"/>
	<path class="st0" d="M381.1,1c-9,7.5-41.3,73-46.8,98.1c0.8,2.5,11.7,11.7,15.7,11.5c23.7-4.3,60.6-20.3,60.6-25.2
		c0-9.2-2.1-20.8-4.5-25.5c-2.7-5.1-22.5-6.8-28.2-5.7c-1.8,6.8-1.2,15-0.8,19.3c8.5-1.2,16.3-0.6,16.8,1.4c1,4.1-37.1,17.6-38,16.8
		c-2.4-2.1,29.8-71,35-70.3c1.6,0.2,0.9,8.9-1.8,16c2.8,2.8,13.9,6.8,17.9,6.7c4.7-14,4.3-26.9,1.1-32.9
		C401.2,7.2,389.8,2.5,381.1,1z"/>
	<path class="st0" d="M451.8,1c-9,7.5-41.3,73-46.8,98.1c0.8,2.5,11.7,11.7,15.7,11.5c23.7-4.3,60.6-20.3,60.6-25.2
		c0-9.2-2.1-20.8-4.5-25.5c-2.7-5.1-22.5-6.8-28.2-5.7c-1.8,6.8-1.2,15-0.8,19.3c8.5-1.2,16.3-0.6,16.8,1.4c1,4.1-37.1,17.6-38,16.8
		c-2.4-2.1,29.8-71,35-70.3c1.6,0.2,0.9,8.9-1.8,16c2.8,2.8,13.9,6.8,17.9,6.7c4.7-14,4.3-26.9,1.1-32.9
		C471.9,7.2,460.5,2.5,451.8,1z"/>
</g>
<g id="DANCE">
	<rect x="285.1" y="173.1" class="st0" width="6.9" height="42.9"/>
	<rect x="466" y="173.1" class="st0" width="47.8" height="6.9"/>
	<rect x="466" y="209" class="st0" width="47.8" height="6.9"/>
	<rect x="466" y="191.3" class="st0" width="24" height="6.9"/>
	<rect x="466" y="173.2" class="st0" width="6.9" height="24"/>
	<polygon class="st0" points="202,215.9 195,215.9 219,173.3 219,184.6 	"/>
	<polygon class="st0" points="224.6,194.7 231.2,194.7 219,173.3 219,184.6 	"/>
	<polygon class="st0" points="331,211 326,215.9 287.3,178.1 292,173.1 	"/>
	<polygon class="st0" points="333,215.9 326,215.9 326,198.5 333,205.6 	"/>
	<polygon class="st0" points="104.8,176.8 111.7,176.8 111.7,194.3 104.8,187.1 	"/>
	<polygon class="st0" points="423.2,208.5 423.2,215.4 399.6,215.4 406.7,208.5 	"/>
	<path class="st0" d="M382.8,194.1c0-8,6.9-14.5,15.3-14.5s18.4,0,25.1,0v-6.9c-9.8,0-12.6,0-25.1,0c-12.5,0-22.6,9.6-22.6,21.4
		H382.8z"/>
	<path class="st0" d="M104.8,180c8.5,0,16.7,0,25.1,0s15.3,6.5,15.3,14.5s-6.9,14.5-15.3,14.5s-18.4,0-25.1,0v6.9
		c9.8,0,12.6,0,25.1,0s22.6-9.6,22.6-21.4s-10.1-21.4-22.6-21.4s-12.6,0-25.1,0V180z"/>
</g>
</svg>
