<?xml version="1.0" encoding="utf-8"?>
<!-- Generator: Adobe Illustrator 19.1.0, SVG Export Plug-In . SVG Version: 6.00 Build 0)  -->
<svg version="1.1" id="Layer_1" xmlns="http://www.w3.org/2000/svg" xmlns:xlink="http://www.w3.org/1999/xlink" x="0px" y="0px"
	 width="1070.8px" height="112px" viewBox="-168 173.1 1070.8 112" style="enable-background:new -168 173.1 1070.8 112;"
	 xml:space="preserve">
<style type="text/css">
	.st0{fill:#D8D8D8;}
</style>
<g id="MESHUGGAH">
	<path class="st0" d="M-134,174.1c-11.5,12.3-32.5,91.1-34,100.1c2.1,2.5,11.3,7.8,17.8,9.3c1.6-8.7,15.7-78.3,36.2-101.4
		C-118.6,178.6-128.1,175.2-134,174.1z"/>
	<path class="st0" d="M-133.8,182.7c-1.3,14-0.9,48.5,3.6,66.1c0,0,10.2,5.7,19.7,8.1c0,0-9.2-44.3-3.5-74.8l-14.7-3.3
		C-131.3,178.3-133.5,180.1-133.8,182.7z"/>
	<path class="st0" d="M334.9,184.3c-0.5,29.4,8.4,76.7,14.7,92.7c0,0,6.5,4.1,20.9,6.9c0,0-21.5-67.7-15.9-100.3l-14.8-3.2
		C337.4,179.9,335,181.8,334.9,184.3z"/>
	<path class="st0" d="M-92.2,197.4c0,0-27.4,38.9-32.8,53.3c0,0,7.7,4.8,14.5,6.2c0,0,14.5-29,36.2-52.3
		C-74.2,204.6-83.7,198.6-92.2,197.4z"/>
	<path class="st0" d="M-105.1,276.2c0.4-12.1,10.3-73.9,12.9-78.3c0,0,9.5,1.6,18,6.6c0,0-11.9,62.6-13.5,77.9
		C-94.6,281.7-102,278.6-105.1,276.2z"/>
	<path class="st0" d="M-67,189.5c-5.7,24.9-11.1,66.5-13,84.8c4.1,4.8,9.5,7.8,14.8,9.5c4.9-30.4,11.1-63.6,18.2-91.3
		C-52.6,189.3-61.1,188.4-67,189.5z"/>
	<path class="st0" d="M-26.7,174.1c-14.4,2.5-38,13.1-40.2,15.4c0.8,3.5,5.8,17.3,8.4,17.7c8.3-4.5,24.4-11.6,39.4-14.1
		C-20.1,187-23.3,178.5-26.7,174.1z"/>
	<path class="st0" d="M-41,214c-6.4,1.5-22.3,13-27.5,18.1c0.5,6.5,2.5,10.5,5.3,15.2c6-4.7,16.6-10.8,26.1-15.2
		C-37.9,225.5-38.7,220.6-41,214z"/>
	<path class="st0" d="M-32.4,236.6c-17.7,10.5-31.1,20.7-47.1,37.1c5.9,5.3,8,6.7,14.2,10.2c8.6-9.7,33.2-27.2,41.5-31
		C-24.8,248.2-29.3,239.9-32.4,236.6z"/>
	<path class="st0" d="M32.7,180.2c-31.8,1-53,15.2-55.4,19.6c-0.3,12.8,1.7,23.8,5,31.5c2.3,3.2,25.8,8.4,51.8,7.4
		c25-1,54.1-9.7,60.3-12c0.5-4.4-0.9-13.8-2.4-18c-7.9,2.6-28.2,9.2-55.6,11.4c-24,1.9-47.8-3.4-47.9-6.4
		c-0.1-4.6,27.6-16.1,46.8-14.4C37.1,194.2,35.5,184.5,32.7,180.2z"/>
	<path class="st0" d="M-42.5,271.1c2.4,3.7,10.3,10.7,14.2,12.6c23.3-16.3,53.8-35.6,122.8-57c0.2-3.4-0.4-12.1-2.4-18
		C80.8,212.5,5.2,230.8-42.5,271.1z"/>
	<path class="st0" d="M97.9,174.1c-8.3,21.2-27.3,82.3-30.8,101c3,3.2,11.8,7.8,16.5,8.8c5.5-22.8,23.5-79.8,31.9-100
		C112.5,180.2,103.5,175.6,97.9,174.1z"/>
	<path class="st0" d="M52.9,173.9c-8.3,21.2-27.3,82.3-30.8,101c3,3.2,11.8,7.8,16.5,8.8c5.5-22.8,23.5-79.8,31.9-100
		C67.5,180,58.5,175.4,52.9,173.9z"/>
	<path class="st0" d="M308.2,271.2c2.4,3.7,10.3,10.7,14.2,12.6c23.3-16.2,53.4-35.6,122.4-57c0.2-3.4-0.1-12-2.1-17.9
		C431.5,212.6,355.9,231,308.2,271.2z"/>
	<path class="st0" d="M434.5,173.1c-4.9,22.2-14.3,85.5-14.8,104.5c3.4,2.7,12.8,5.8,17.7,6.2c2-23.4,11-82.4,16.1-103.7
		C449.9,176.9,440.3,173.7,434.5,173.1z"/>
	<path class="st0" d="M390,173.4c-4.9,22.2-14.3,85.5-14.8,104.5c3.4,2.7,12.8,5.8,17.7,6.2c2-23.4,11-82.4,16.1-103.7
		C405.4,177.2,395.8,174,390,173.4z"/>
	<path class="st0" d="M337.1,173.9c-8.3,21.2-27.3,82.3-30.8,101c3,3.2,11.8,7.8,16.5,8.8c5.5-22.8,23.5-79.8,31.9-100
		C351.7,180,342.7,175.4,337.1,173.9z"/>
	<path class="st0" d="M123,189c-8.4,20.6-23.4,68.6-26.4,84.1c2.7,4.1,11.8,9.7,17.6,10.8c3.3-14.4,18-67.2,23.9-83.1
		C135.9,197.7,128.3,191.1,123,189z"/>
	<path class="st0" d="M168.6,176.5c-8.4,20.6-22.7,65-25.6,80.5c2.7,4.1,12.2,8.4,18,9.6c3.3-14.4,16.8-62.3,22.7-78.3
		C181.4,185.2,173.9,178.5,168.6,176.5z"/>
	<path class="st0" d="M99.6,271.1c14.2-10,39.2-19.2,61.1-23.7c1.9,1.8,0.6,15.6,0.3,19.1c-22.4,6.3-38.2,13.1-46.8,17.4
		C109.3,281,102.7,275,99.6,271.1z"/>
	<path class="st0" d="M301.2,261.9"/>
	<path class="st0" d="M213.1,174.1c-9,7.5-41.3,73-46.8,98.1c0.8,2.5,11.7,11.7,15.7,11.5c23.7-4.3,60.6-20.3,60.6-25.2
		c0-9.2-2.1-20.8-4.5-25.5c-2.7-5.1-22.5-6.8-28.2-5.7c-1.8,6.8-1.2,15-0.8,19.3c8.5-1.2,16.3-0.6,16.8,1.4c1,4.1-37.1,17.6-38,16.8
		c-2.4-2.1,29.8-71,35-70.3c1.6,0.2,0.9,8.9-1.8,16c2.8,2.8,13.9,6.8,17.9,6.7c4.7-14,4.3-26.9,1.1-32.9
		C233.2,180.3,221.8,175.6,213.1,174.1z"/>
	<path class="st0" d="M283.8,174.1c-9,7.5-41.3,73-46.8,98.1c0.8,2.5,11.7,11.7,15.7,11.5c23.7-4.3,60.6-20.3,60.6-25.2
		c0-9.2-2.1-20.8-4.5-25.5c-2.7-5.1-22.5-6.8-28.2-5.7c-1.8,6.8-1.2,15-0.8,19.3c8.5-1.2,16.3-0.6,16.8,1.4c1,4.1-37.1,17.6-38,16.8
		c-2.4-2.1,29.8-71,35-70.3c1.6,0.2,0.9,8.9-1.8,16c2.8,2.8,13.9,6.8,17.9,6.7c4.7-14,4.3-26.9,1.1-32.9
		C303.9,180.3,292.5,175.6,283.8,174.1z"/>
</g>
<g id="DANCE">
	<rect x="674.1" y="239.2" class="st0" width="6.9" height="42.9"/>
	<rect x="855" y="239.2" class="st0" width="47.8" height="6.9"/>
	<rect x="855" y="275.1" class="st0" width="47.8" height="6.9"/>
	<rect x="855" y="257.4" class="st0" width="24" height="6.9"/>
	<rect x="855" y="239.3" class="st0" width="6.9" height="24"/>
	<polygon class="st0" points="591,282 584,282 608,239.4 608,250.7 	"/>
	<polygon class="st0" points="613.6,260.8 620.2,260.8 608,239.4 608,250.7 	"/>
	<polygon class="st0" points="720,277.1 715,282 676.3,244.2 681,239.2 	"/>
	<polygon class="st0" points="722,282 715,282 715,264.6 722,271.7 	"/>
	<polygon class="st0" points="493.8,242.9 500.7,242.9 500.7,260.4 493.8,253.2 	"/>
	<polygon class="st0" points="812.2,274.6 812.2,281.5 788.6,281.5 795.7,274.6 	"/>
	<path class="st0" d="M771.8,260.2c0-8,6.9-14.5,15.3-14.5s18.4,0,25.1,0v-6.9c-9.8,0-12.6,0-25.1,0s-22.6,9.6-22.6,21.4H771.8z"/>
	<path class="st0" d="M493.8,246.1c8.5,0,16.7,0,25.1,0s15.3,6.5,15.3,14.5s-6.9,14.5-15.3,14.5s-18.4,0-25.1,0v6.9
		c9.8,0,12.6,0,25.1,0s22.6-9.6,22.6-21.4s-10.1-21.4-22.6-21.4s-12.6,0-25.1,0C493.8,239.2,493.8,246.1,493.8,246.1z"/>
</g>
</svg>
